<?xml version="1.0" encoding="UTF-8" standalone="no"?><svg xmlns="http://www.w3.org/2000/svg" xmlns:xlink="http://www.w3.org/1999/xlink" contentScriptType="text/ecmascript" fill="none" width="48" zoomAndPan="magnify" style="stroke-opacity: 1.0;" contentStyleType="text/css" viewBox="0 0 48 48" height="48" preserveAspectRatio="xMidYMid meet" version="1.0">
<path fill="#00E5FF" fill-opacity="1.0" stroke-width="2.0" d="M9.45455 14.9091C10.5023 14.9091 12.3205 14.9091 14.9091 14.9091C14.9091 12.2333 14.9091 10.4151 14.9091 9.45455C14.9091 6.44208 12.467 4 9.45455 4C6.44208 4 4 6.44208 4 9.45455C4 12.467 6.44208 14.9091 9.45455 14.9091Z" stroke-linejoin="round" stroke="#00E5FF"/>
<path fill="#00E5FF" fill-opacity="1.0" stroke-width="2.0" d="M9.45455 33.0909H14.9091V38.5454C14.9091 41.5579 12.467 44 9.45455 44C6.44208 44 4 41.5579 4 38.5454C4 35.533 6.44208 33.0909 9.45455 33.0909Z" stroke-linejoin="round" stroke="#00E5FF"/>
<rect stroke-linecap="round" x="14.9092" y="14.9091" width="18.1818" stroke-linejoin="round" height="18.1818" stroke="#00E5FF" stroke-width="2.0"/>
<path fill="#00E5FF" fill-opacity="1.0" stroke-width="2.0" d="M38.5454 14.9091H33.0908V9.45455C33.0908 6.44208 35.5329 4 38.5454 4C41.5578 4 43.9999 6.44208 43.9999 9.45455C43.9999 12.467 41.5578 14.9091 38.5454 14.9091Z" stroke-linejoin="round" stroke="#00E5FF"/>
<path fill="#00E5FF" fill-opacity="1.0" stroke-width="2.0" d="M38.5454 33.0909C41.5578 33.0909 43.9999 35.533 43.9999 38.5454C43.9999 41.5579 41.5578 44 38.5454 44C35.5329 44 33.0908 41.5579 33.0908 38.5454V33.0909H38.5454Z" stroke-linejoin="round" stroke="#00E5FF"/>
</svg>